<svg xmlns="http://www.w3.org/2000/svg" width="85.995" height="85.995" viewBox="0 0 85.995 85.995">
  <path id="Icon_awesome-check-circle" data-name="Icon awesome-check-circle" d="M86.557,43.56a43,43,0,1,1-43-43A43,43,0,0,1,86.557,43.56ZM38.586,66.327l31.9-31.9a2.774,2.774,0,0,0,0-3.923l-3.923-3.923a2.774,2.774,0,0,0-3.923,0L36.625,52.6,24.478,40.449a2.774,2.774,0,0,0-3.923,0l-3.923,3.923a2.774,2.774,0,0,0,0,3.923L34.663,66.327a2.774,2.774,0,0,0,3.923,0Z" transform="translate(-0.563 -0.563)" fill="rgba(45,156,53,0.99)"/>
</svg>
