<svg xmlns="http://www.w3.org/2000/svg" width="121.859" height="91.877" viewBox="0 0 121.859 91.877">
  <path id="Icon_awesome-credit-card" data-name="Icon awesome-credit-card" d="M0,84.283a10.006,10.006,0,0,0,10.155,9.844H111.7a10.006,10.006,0,0,0,10.155-9.844V48.188H0ZM40.62,70.337a2.508,2.508,0,0,1,2.539-2.461H71.931a2.508,2.508,0,0,1,2.539,2.461v8.2A2.508,2.508,0,0,1,71.931,81H43.158A2.508,2.508,0,0,1,40.62,78.54Zm-27.08,0a2.508,2.508,0,0,1,2.539-2.461H31.311a2.508,2.508,0,0,1,2.539,2.461v8.2A2.508,2.508,0,0,1,31.311,81H16.079A2.508,2.508,0,0,1,13.54,78.54ZM121.859,12.094v9.844H0V12.094A10.006,10.006,0,0,1,10.155,2.25H111.7A10.006,10.006,0,0,1,121.859,12.094Z" transform="translate(0 -2.25)" fill="#2b6fb8"/>
</svg>
