<svg xmlns="http://www.w3.org/2000/svg" width="160" height="50" viewBox="0 0 160 50">
  <g id="download_play" transform="translate(0 -101)">
    <rect id="Rectangle_5" width="160" height="50" rx="5" transform="translate(0 101)"/>
    <g id="Group_2">
      <g id="path46">
        <path id="Tracé_2" data-name="Tracé 2" d="M81.281,127.986a4.936,4.936,0,1,0,5.016,4.936A4.894,4.894,0,0,0,81.281,127.986Zm0,7.926a3,3,0,1,1,2.82-2.99A2.867,2.867,0,0,1,81.281,135.912ZM70.35,127.986a4.936,4.936,0,1,0,5.01,4.936A4.89,4.89,0,0,0,70.35,127.986Zm0,7.926a3,3,0,1,1,2.815-2.99A2.871,2.871,0,0,1,70.35,135.912ZM57.343,129.5v2.1H62.41a4.331,4.331,0,0,1-1.152,2.634,5.238,5.238,0,0,1-3.915,1.53,5.57,5.57,0,0,1,0-11.139,5.4,5.4,0,0,1,3.818,1.5l1.5-1.478a7.439,7.439,0,0,0-5.314-2.114,7.668,7.668,0,1,0,0,15.331,7.132,7.132,0,0,0,5.412-2.153,7.466,7.466,0,0,0,1.72-6.2Zm53.188,1.626a4.625,4.625,0,0,0-4.276-3.139,4.715,4.715,0,0,0-4.706,4.936,4.856,4.856,0,0,0,4.953,4.934,4.962,4.962,0,0,0,4.161-2.187l-1.7-1.121a2.862,2.862,0,0,1-2.459,1.364,2.543,2.543,0,0,1-2.419-1.495l6.679-2.731Zm-6.809,1.643a2.723,2.723,0,0,1,2.608-2.878,1.944,1.944,0,0,1,1.858,1.048Zm-5.428,4.788h2.2v-14.5h-2.2Zm-3.6-8.471h-.073a3.479,3.479,0,0,0-2.625-1.1,4.937,4.937,0,0,0,0,9.87,3.429,3.429,0,0,0,2.625-1.121H94.7v.707c0,1.887-1.02,2.9-2.665,2.9a2.769,2.769,0,0,1-2.517-1.762l-1.909.788a4.764,4.764,0,0,0,4.426,2.918c2.574,0,4.746-1.5,4.746-5.139v-8.862H94.7Zm-2.511,6.827a3,3,0,0,1,0-5.982,3.011,3.011,0,0,1,0,5.982Zm28.621-12.86h-5.25v14.5h2.189v-5.5h3.061a4.514,4.514,0,1,0,0-9.008Zm.057,6.991h-3.118v-4.974h3.118a2.488,2.488,0,1,1,0,4.974Zm13.534-2.084a4.115,4.115,0,0,0-3.9,2.22l1.943.8a2.078,2.078,0,0,1,2-1.066,2.1,2.1,0,0,1,2.3,1.865v.152a4.856,4.856,0,0,0-2.287-.561c-2.093,0-4.225,1.139-4.225,3.263a3.375,3.375,0,0,0,3.641,3.2,3.107,3.107,0,0,0,2.8-1.422h.074v1.121h2.115v-5.563C138.86,129.4,136.917,127.959,134.4,127.959Zm-.264,7.947c-.716,0-1.714-.35-1.714-1.228,0-1.123,1.245-1.553,2.322-1.553a3.962,3.962,0,0,1,2,.487A2.646,2.646,0,0,1,134.136,135.906Zm12.428-7.63-2.517,6.287h-.074l-2.6-6.287H139.01l3.909,8.786-2.231,4.89h2.288L149,128.276Zm-19.735,9.28h2.195v-14.5h-2.195Z" fill="#fff"/>
        <path id="Tracé_3" data-name="Tracé 3" d="M81.281,127.986a4.936,4.936,0,1,0,5.016,4.936A4.894,4.894,0,0,0,81.281,127.986Zm0,7.926a3,3,0,1,1,2.82-2.99A2.867,2.867,0,0,1,81.281,135.912ZM70.35,127.986a4.936,4.936,0,1,0,5.01,4.936A4.89,4.89,0,0,0,70.35,127.986Zm0,7.926a3,3,0,1,1,2.815-2.99A2.871,2.871,0,0,1,70.35,135.912ZM57.343,129.5v2.1H62.41a4.331,4.331,0,0,1-1.152,2.634,5.238,5.238,0,0,1-3.915,1.53,5.57,5.57,0,0,1,0-11.139,5.4,5.4,0,0,1,3.818,1.5l1.5-1.478a7.439,7.439,0,0,0-5.314-2.114,7.668,7.668,0,1,0,0,15.331,7.132,7.132,0,0,0,5.412-2.153,7.466,7.466,0,0,0,1.72-6.2Zm53.188,1.626a4.625,4.625,0,0,0-4.276-3.139,4.715,4.715,0,0,0-4.706,4.936,4.856,4.856,0,0,0,4.953,4.934,4.962,4.962,0,0,0,4.161-2.187l-1.7-1.121a2.862,2.862,0,0,1-2.459,1.364,2.543,2.543,0,0,1-2.419-1.495l6.679-2.731Zm-6.809,1.643a2.723,2.723,0,0,1,2.608-2.878,1.944,1.944,0,0,1,1.858,1.048Zm-5.428,4.788h2.2v-14.5h-2.2Zm-3.6-8.471h-.073a3.479,3.479,0,0,0-2.625-1.1,4.937,4.937,0,0,0,0,9.87,3.429,3.429,0,0,0,2.625-1.121H94.7v.707c0,1.887-1.02,2.9-2.665,2.9a2.769,2.769,0,0,1-2.517-1.762l-1.909.788a4.764,4.764,0,0,0,4.426,2.918c2.574,0,4.746-1.5,4.746-5.139v-8.862H94.7Zm-2.511,6.827a3,3,0,0,1,0-5.982,3.011,3.011,0,0,1,0,5.982Zm28.621-12.86h-5.25v14.5h2.189v-5.5h3.061a4.514,4.514,0,1,0,0-9.008Zm.057,6.991h-3.118v-4.974h3.118a2.488,2.488,0,1,1,0,4.974Zm13.534-2.084a4.115,4.115,0,0,0-3.9,2.22l1.943.8a2.078,2.078,0,0,1,2-1.066,2.1,2.1,0,0,1,2.3,1.865v.152a4.856,4.856,0,0,0-2.287-.561c-2.093,0-4.225,1.139-4.225,3.263a3.375,3.375,0,0,0,3.641,3.2,3.107,3.107,0,0,0,2.8-1.422h.074v1.121h2.115v-5.563C138.86,129.4,136.917,127.959,134.4,127.959Zm-.264,7.947c-.716,0-1.714-.35-1.714-1.228,0-1.123,1.245-1.553,2.322-1.553a3.962,3.962,0,0,1,2,.487A2.646,2.646,0,0,1,134.136,135.906Zm12.428-7.63-2.517,6.287h-.074l-2.6-6.287H139.01l3.909,8.786-2.231,4.89h2.288L149,128.276Zm-19.735,9.28h2.195v-14.5h-2.195Z" fill="none" stroke="#fff" stroke-width="0.1"/>
      </g>
      <g id="g48">
        <path id="path64" d="M13.544,111.494A2.3,2.3,0,0,0,13,113.126v25.66a2.293,2.293,0,0,0,.544,1.631l.085.079,14.548-14.373v-.34L13.63,111.41Z" fill="#fff"/>
      </g>
      <g id="g66">
        <path id="path78" d="M33.021,130.916l-4.844-4.793v-.34l4.85-4.793.109.062,5.743,3.23c1.639.917,1.639,2.425,0,3.348l-5.743,3.224Z" fill="#fff"/>
      </g>
      <g id="g80">
        <path id="path88" d="M33.136,130.854l-4.958-4.9L13.544,140.417a1.93,1.93,0,0,0,2.442.069Z" fill="#fff"/>
      </g>
      <g id="g90">
        <path id="path104" d="M33.136,121.052l-17.15-9.632a1.937,1.937,0,0,0-2.442.074l14.633,14.459Z" fill="#fff"/>
      </g>
    </g>
    <g id="Group_2_5" data-name="Group 2_5">
      <path id="GET_IT_ON_3" data-name="GET IT ON_3" d="M50.969,114.58v-.864a3.112,3.112,0,0,1,.747-2.2,2.652,2.652,0,0,1,2.046-.811,3.053,3.053,0,0,1,1.094.186,2.181,2.181,0,0,1,.806.5,2.255,2.255,0,0,1,.483.708,2.29,2.29,0,0,1,.2.839H55.188a1.319,1.319,0,0,0-.469-.908,1.487,1.487,0,0,0-.972-.322,1.458,1.458,0,0,0-1.152.5,2.238,2.238,0,0,0-.439,1.509v.859a2.524,2.524,0,0,0,.4,1.5,1.393,1.393,0,0,0,1.2.542,1.557,1.557,0,0,0,1.069-.361,1.179,1.179,0,0,0,.41-.918v-.484H53.752v-.918h2.6v1.343a2.427,2.427,0,0,1-.083.625,2.376,2.376,0,0,1-.278.63,2.262,2.262,0,0,1-.488.552,2.345,2.345,0,0,1-.752.39,3.287,3.287,0,0,1-1.016.147,2.56,2.56,0,0,1-2.07-.825A3.336,3.336,0,0,1,50.969,114.58Zm7.392,2.92v-6.665h4.209v.986H59.537v1.831h2.852v.933H59.537v1.929h3.032v.986Zm5.61-5.664v-1h5.044v1H67.076V117.5H65.9v-5.664Zm9.447,5.664v-6.665H74.6V117.5Zm2.807-5.664v-1h5.044v1H79.329V117.5H78.157v-5.664Zm9.183,2.8v-.889a3.163,3.163,0,0,1,.752-2.231,2.979,2.979,0,0,1,4.1,0A3.176,3.176,0,0,1,91,113.75v.889a3.079,3.079,0,0,1-.752,2.2,3.054,3.054,0,0,1-4.1,0A3.094,3.094,0,0,1,85.407,114.639Zm1.191,0a2.208,2.208,0,0,0,.439,1.484,1.6,1.6,0,0,0,2.329,0,2.208,2.208,0,0,0,.439-1.484v-.9a2.282,2.282,0,0,0-.444-1.509A1.434,1.434,0,0,0,88.2,111.7a1.453,1.453,0,0,0-1.167.527,2.3,2.3,0,0,0-.439,1.509ZM93,117.5v-6.665h1.021l3.062,4.663h.039v-4.663h1.123V117.5H97.237l-3.071-4.678h-.034V117.5Z" fill="#fff"/>
    </g>
  </g>
</svg>
