<svg xmlns="http://www.w3.org/2000/svg" width="160" height="50" viewBox="0 0 160 50">
  <g id="download_apple" transform="translate(0 -50.5)">
    <rect id="Rectangle_2" width="160" height="50" rx="5" transform="translate(0 50.5)"/>
    <path id="Shape" d="M31.436,59a6.606,6.606,0,0,1-1.452,4.87,5.941,5.941,0,0,1-4.6,2.348,6.109,6.109,0,0,1,1.492-4.75A7.045,7.045,0,0,1,31.436,59Zm5.252,25.648a21.679,21.679,0,0,0,1.938-3.637,6.612,6.612,0,0,1-.868-11.946,7.593,7.593,0,0,0-5.732-3.043,8.757,8.757,0,0,0-3.388.731,6.275,6.275,0,0,1-2.31.556,7.554,7.554,0,0,1-2.582-.6,8.9,8.9,0,0,0-3.135-.687,7.782,7.782,0,0,0-6.263,3.785c-2.169,3.364-1.8,9.688,1.718,15.075C17.321,86.814,19,88.98,21.2,89a4.753,4.753,0,0,0,2.175-.558,6.571,6.571,0,0,1,2.982-.711,6.193,6.193,0,0,1,2.967.7,4.546,4.546,0,0,0,2.137.559C33.658,88.977,35.43,86.576,36.687,84.648Z" fill="#fff" fill-rule="evenodd"/>
    <g id="Group_2_2" data-name="Group 2_2">
      <path id="DOWNLOAD_ON_THE" data-name="DOWNLOAD ON THE" d="M51.159,61v6h2.114c1.951,0,2.667-1.27,2.667-3.01,0-1.758-.734-2.988-2.667-2.988Zm1.063.888h.923c1.279,0,1.7.87,1.7,2.118,0,1.481-.584,2.1-1.7,2.1h-.923Zm6.288,1.727c0-1.213.615-1.833,1.446-1.833s1.441.62,1.441,1.833v.813c0,1.213-.606,1.789-1.441,1.789s-1.446-.576-1.446-1.789Zm-1.077.809a2.528,2.528,0,1,0,5.045,0v-.8a2.531,2.531,0,1,0-5.045,0ZM66.235,67l1.156-4.32h.04L68.587,67h.971l1.6-6H70.023l-.993,4.4h-.044L67.892,61h-.958l-1.1,4.4H65.8l-1-4.4H63.66l1.6,6Zm7.347,0V62.79h.031L76.395,67h.91V61h-.993v4.2h-.035L73.5,61h-.919v6Zm9.443-.914h-2.61V61H79.352v6h3.674Zm2.245-2.47c0-1.213.615-1.833,1.446-1.833s1.441.62,1.441,1.833v.813c0,1.213-.606,1.789-1.441,1.789s-1.446-.576-1.446-1.789Zm-1.077.809a2.528,2.528,0,1,0,5.045,0v-.8a2.531,2.531,0,1,0-5.045,0ZM91.426,67l.51-1.617h2.07L94.516,67h1.138L93.61,61H92.4l-2.048,6ZM93,62.078l.782,2.5H92.169l.787-2.5ZM97.112,61v6h2.114c1.951,0,2.668-1.27,2.668-3.01,0-1.758-.734-2.988-2.668-2.988Zm1.063.888H99.1c1.278,0,1.7.87,1.7,2.118,0,1.481-.584,2.1-1.7,2.1h-.923Zm8.792,1.727c0-1.213.615-1.833,1.446-1.833s1.441.62,1.441,1.833v.813c0,1.213-.606,1.789-1.441,1.789s-1.446-.576-1.446-1.789Zm-1.077.809a2.528,2.528,0,1,0,5.045,0v-.8a2.531,2.531,0,1,0-5.045,0ZM113.735,67V62.79h.03L116.547,67h.91V61h-.993v4.2h-.035L113.656,61h-.919v6Zm10.484,0V61.9h1.744V61h-4.539v.9h1.74V67Zm8,0V61h-1.063v2.474h-2.672V61h-1.063v6h1.063V64.372h2.672V67Zm5.827-.888h-2.729V64.377h2.566v-.839h-2.566V61.889h2.729V61h-3.788v6h3.788Z" fill="#fff"/>
      <path id="App_Store" data-name="App Store" d="M49.191,89l5.233-15.33h3.088L62.735,89H59.826l-1.3-4.133h-5.29L51.931,89Zm4.638-6.2h4.11l-2-6.379h-.1ZM64.4,93.009v-15.9H67v1.718h.1a2.838,2.838,0,0,1,1.28-1.359,4.49,4.49,0,0,1,2.246-.517,4.044,4.044,0,0,1,3.246,1.426,5.914,5.914,0,0,1,1.224,3.976v1.426a5.869,5.869,0,0,1-1.224,3.964,4.109,4.109,0,0,1-3.291,1.415,4.178,4.178,0,0,1-2.156-.505,3.145,3.145,0,0,1-1.258-1.325h-.112v5.683Zm2.65-9.378a3.879,3.879,0,0,0,.73,2.426A2.4,2.4,0,0,0,69.771,87a2.314,2.314,0,0,0,1.9-.876,4,4,0,0,0,.719-2.572v-1A4.007,4.007,0,0,0,71.68,80a2.564,2.564,0,0,0-3.908.011,3.737,3.737,0,0,0-.719,2.4Zm10.372,9.378v-15.9h2.594v1.718h.1a2.837,2.837,0,0,1,1.28-1.359,4.489,4.489,0,0,1,2.246-.517,4.044,4.044,0,0,1,3.246,1.426,5.915,5.915,0,0,1,1.224,3.976v1.426a5.87,5.87,0,0,1-1.224,3.964A4.11,4.11,0,0,1,83.6,89.157a4.178,4.178,0,0,1-2.156-.505,3.145,3.145,0,0,1-1.258-1.325h-.112v5.683Zm2.65-9.378a3.879,3.879,0,0,0,.73,2.426A2.4,2.4,0,0,0,82.793,87a2.314,2.314,0,0,0,1.9-.876,4,4,0,0,0,.719-2.572v-1A4.007,4.007,0,0,0,84.7,80a2.564,2.564,0,0,0-3.908.011,3.737,3.737,0,0,0-.719,2.4ZM93.9,84.71h2.639a2.368,2.368,0,0,0,.966,1.707,3.832,3.832,0,0,0,2.392.674,3.622,3.622,0,0,0,2.246-.618,1.984,1.984,0,0,0,.82-1.673,1.645,1.645,0,0,0-.584-1.325,4.406,4.406,0,0,0-1.819-.8l-2.459-.6a6.972,6.972,0,0,1-1.46-.494,5.639,5.639,0,0,1-1.2-.809,3.406,3.406,0,0,1-.842-1.224,4.239,4.239,0,0,1-.3-1.64,4.08,4.08,0,0,1,.775-2.482A4.633,4.633,0,0,1,97.1,73.85a7.3,7.3,0,0,1,2.8-.517,7.106,7.106,0,0,1,2.8.528,4.55,4.55,0,0,1,2,1.572,4.1,4.1,0,0,1,.775,2.4h-2.583a2.317,2.317,0,0,0-.854-1.651,3.251,3.251,0,0,0-2.156-.651,3.4,3.4,0,0,0-2.078.584,1.859,1.859,0,0,0-.775,1.583q0,1.494,2.111,1.988l2.47.6a8.75,8.75,0,0,1,1.618.528,5.229,5.229,0,0,1,1.269.809,3.155,3.155,0,0,1,.887,1.235,4.484,4.484,0,0,1,.3,1.707,4.14,4.14,0,0,1-1.64,3.481A6.9,6.9,0,0,1,99.706,89.3a8.434,8.434,0,0,1-2.257-.281,5.535,5.535,0,0,1-1.651-.73,4.517,4.517,0,0,1-1.078-1.056A4.386,4.386,0,0,1,94.091,86,4.989,4.989,0,0,1,93.9,84.71Zm13.236-5.424V77.208h1.707V74.243h2.583v2.965h2.313v2.078h-2.313v6.1a1.667,1.667,0,0,0,.393,1.28,2.227,2.227,0,0,0,1.4.337,4.763,4.763,0,0,0,.584-.022v2.01a7.991,7.991,0,0,1-1.236.09,5.716,5.716,0,0,1-2.28-.371,2.229,2.229,0,0,1-1.168-1.089,4.907,4.907,0,0,1-.325-1.965V79.286Zm8.136,4.178v-.842a7.059,7.059,0,0,1,.573-2.931,4.577,4.577,0,0,1,1.808-2.021,5.557,5.557,0,0,1,2.965-.753,4.99,4.99,0,0,1,3.964,1.55,6,6,0,0,1,1.371,4.144v.854a6.138,6.138,0,0,1-1.359,4.211,5.953,5.953,0,0,1-7.963,0A6.112,6.112,0,0,1,115.272,83.463Zm2.662-.067a6.648,6.648,0,0,0,.135,1.393,4.379,4.379,0,0,0,.426,1.168,2.113,2.113,0,0,0,.832.831,2.591,2.591,0,0,0,1.291.3,2.648,2.648,0,0,0,1.28-.292,2.015,2.015,0,0,0,.82-.842,4.1,4.1,0,0,0,.416-1.168,6.651,6.651,0,0,0,.134-1.393v-.685a6.711,6.711,0,0,0-.134-1.4,4.1,4.1,0,0,0-.416-1.168,2.025,2.025,0,0,0-.831-.831,2.508,2.508,0,0,0-1.269-.3,2.631,2.631,0,0,0-1.291.3,2.093,2.093,0,0,0-.832.842,4.2,4.2,0,0,0-.426,1.168,6.646,6.646,0,0,0-.135,1.393Zm10.45,5.6V77.118h2.651v1.538h.1a2.712,2.712,0,0,1,2.818-1.718,4.708,4.708,0,0,1,.876.079v2.325a4.323,4.323,0,0,0-1.1-.09q-2.65,0-2.651,2.763V89Zm7.407-5.413v-1a5.962,5.962,0,0,1,1.37-4.133,4.807,4.807,0,0,1,3.785-1.539,4.759,4.759,0,0,1,3.8,1.539,6.035,6.035,0,0,1,1.347,4.122v1.067h-7.681v.371a3.456,3.456,0,0,0,.7,2.2,2.379,2.379,0,0,0,1.988.887,2.522,2.522,0,0,0,1.594-.449,1.843,1.843,0,0,0,.719-1.134h2.561a3.729,3.729,0,0,1-.259,1,3.967,3.967,0,0,1-.572.988,4.077,4.077,0,0,1-.921.865,4.525,4.525,0,0,1-1.337.606,6.609,6.609,0,0,1-1.774.225,5.111,5.111,0,0,1-3.931-1.494A5.862,5.862,0,0,1,135.791,83.587Zm2.617-1.729h5.1v-.022a3.074,3.074,0,0,0-.685-2.078,2.317,2.317,0,0,0-1.853-.8,2.347,2.347,0,0,0-1.875.809,3.057,3.057,0,0,0-.685,2.066Z" fill="#fff"/>
    </g>
  </g>
</svg>
