<svg id="download_apk" xmlns="http://www.w3.org/2000/svg" width="160" height="50" viewBox="0 0 160 50">
  <rect id="Rectangle" width="160" height="50" rx="5"/>
  <g id="Android">
    <path id="Subtract" d="M31.465,12.151l-.344.507c2.614,1.187,4.384,3.434,4.384,6.006H18.246c0-2.572,1.77-4.819,4.386-6.006l-.346-.507-.345-.5-.768-1.123a.3.3,0,0,1,.086-.415.315.315,0,0,1,.429.084l.824,1.2.347.5.35.514a10.575,10.575,0,0,1,7.334,0l.352-.514L32.067,10.2a.309.309,0,0,1,.425-.084.293.293,0,0,1,.086.415l-.768,1.123Zm-13.22,7.712H35.5v13.2a1.927,1.927,0,0,1-1.951,1.9h-1.41a1.691,1.691,0,0,1,.077.5v3.8a1.851,1.851,0,0,1-3.7,0v-3.8a1.754,1.754,0,0,1,.073-.5H25.158a1.754,1.754,0,0,1,.075.5v3.8a1.851,1.851,0,0,1-3.7,0v-3.8a1.69,1.69,0,0,1,.075-.5H20.2a1.929,1.929,0,0,1-1.953-1.9Zm-3.083,0a1.825,1.825,0,0,0-1.85,1.8v7.7a1.85,1.85,0,0,0,3.7,0v-7.7A1.825,1.825,0,0,0,15.163,19.863Zm21.576,1.8a1.85,1.85,0,0,1,3.7,0v7.7a1.85,1.85,0,0,1-3.7,0Zm-15.063-5.4a.9.9,0,1,1,.925-.9A.912.912,0,0,1,21.676,16.263Zm6.473-.9a.925.925,0,1,0,.925-.9A.912.912,0,0,0,28.149,15.363Z" fill="#fff" fill-rule="evenodd"/>
  </g>
  <g id="Group_2" data-name="Group 2">
    <path id="DOWNLOAD_APK_6.0_" data-name="DOWNLOAD APK 6.0+" d="M50.659,17V11h2.114a3.128,3.128,0,0,1,1.226.22,1.981,1.981,0,0,1,.835.62,2.656,2.656,0,0,1,.457.94,4.474,4.474,0,0,1,.149,1.208,5.124,5.124,0,0,1-.088.984,3.006,3.006,0,0,1-.29.826,2.205,2.205,0,0,1-.51.642,2.175,2.175,0,0,1-.756.413A3.35,3.35,0,0,1,52.773,17Zm1.063-.888h.923a1.565,1.565,0,0,0,1.274-.505,2.458,2.458,0,0,0,.426-1.6,3.783,3.783,0,0,0-.088-.861,2.019,2.019,0,0,0-.281-.664,1.239,1.239,0,0,0-.532-.444,1.9,1.9,0,0,0-.8-.154h-.923Zm5.211-1.688v-.8a2.849,2.849,0,0,1,.677-2.008,2.682,2.682,0,0,1,3.687,0,2.86,2.86,0,0,1,.672,2.008v.8a2.77,2.77,0,0,1-.677,1.982,2.748,2.748,0,0,1-3.691,0A2.783,2.783,0,0,1,56.934,14.425Zm1.072,0a1.988,1.988,0,0,0,.4,1.336,1.44,1.44,0,0,0,2.1,0,1.987,1.987,0,0,0,.4-1.336v-.813a2.052,2.052,0,0,0-.4-1.358,1.289,1.289,0,0,0-1.042-.475,1.307,1.307,0,0,0-1.05.475,2.068,2.068,0,0,0-.4,1.358ZM63.151,11H64.32l.967,4.4h.039l1.1-4.4h.962l1.094,4.4h.044l.962-4.4h1.169l-1.6,6h-.976l-1.156-4.32h-.039L65.727,17h-.976Zm8.925,6V11h.919l2.755,4.2h.035V11H76.8v6h-.91l-2.764-4.21h-.031V17Zm6.767,0V11h1.063v5.084h2.61V17ZM83.6,14.425v-.8a2.849,2.849,0,0,1,.677-2.008,2.682,2.682,0,0,1,3.687,0,2.86,2.86,0,0,1,.672,2.008v.8a2.77,2.77,0,0,1-.677,1.982,2.748,2.748,0,0,1-3.691,0A2.783,2.783,0,0,1,83.6,14.425Zm1.072,0a1.988,1.988,0,0,0,.4,1.336,1.44,1.44,0,0,0,2.1,0,1.987,1.987,0,0,0,.4-1.336v-.813a2.052,2.052,0,0,0-.4-1.358,1.289,1.289,0,0,0-1.042-.475,1.307,1.307,0,0,0-1.05.475,2.068,2.068,0,0,0-.4,1.358ZM89.753,17,91.8,11h1.208l2.043,6H93.915l-.51-1.617h-2.07L90.825,17Zm1.815-2.426h1.608l-.782-2.5h-.04ZM96.516,17V11h2.114a3.128,3.128,0,0,1,1.226.22,1.98,1.98,0,0,1,.835.62,2.644,2.644,0,0,1,.457.94,4.457,4.457,0,0,1,.15,1.208,5.092,5.092,0,0,1-.088.984,3.012,3.012,0,0,1-.29.826,2.211,2.211,0,0,1-.51.642,2.173,2.173,0,0,1-.756.413A3.35,3.35,0,0,1,98.629,17Zm1.063-.888H98.5a1.565,1.565,0,0,0,1.274-.505,2.455,2.455,0,0,0,.427-1.6,3.816,3.816,0,0,0-.088-.861,2.027,2.027,0,0,0-.281-.664,1.239,1.239,0,0,0-.532-.444,1.9,1.9,0,0,0-.8-.154h-.923Zm7.368.888L107,11H108.2l2.043,6h-1.138l-.51-1.617h-2.07L106.02,17Zm1.815-2.426h1.609l-.783-2.5h-.039ZM111.71,17V11h2.338a1.865,1.865,0,0,1,1.99,1.96,1.9,1.9,0,0,1-.54,1.406,1.964,1.964,0,0,1-1.459.541h-1.266V17Zm1.063-2.944h.769a1.921,1.921,0,0,0,1.064-.237.967.967,0,0,0,.351-.857,1.1,1.1,0,0,0-.285-.809,1.082,1.082,0,0,0-.8-.286h-1.1ZM117.633,17V11H118.7v2.751h.049L121.118,11H122.3l-2.167,2.575L122.4,17h-1.292l-1.758-2.707-.655.725V17Zm8.357-2.835a4.009,4.009,0,0,1,.628-2.426,2.019,2.019,0,0,1,1.705-.848,2.207,2.207,0,0,1,.8.141,1.684,1.684,0,0,1,.6.374,1.842,1.842,0,0,1,.369.5,1.5,1.5,0,0,1,.159.554h-1.016a.77.77,0,0,0-.285-.492.944.944,0,0,0-.655-.224,1.061,1.061,0,0,0-.94.58A3.256,3.256,0,0,0,127,13.95h.04a1.364,1.364,0,0,1,.514-.615,1.6,1.6,0,0,1,.927-.259,1.98,1.98,0,0,1,1.323.505,1.665,1.665,0,0,1,.435.62,2.1,2.1,0,0,1,.163.835,2.124,2.124,0,0,1-.29,1.121,1.875,1.875,0,0,1-.774.721,2.391,2.391,0,0,1-1.077.237,2.015,2.015,0,0,1-1.661-.756A3.439,3.439,0,0,1,125.99,14.165Zm1.138.918a1.143,1.143,0,0,0,.33.866,1.13,1.13,0,0,0,.808.312,1.1,1.1,0,0,0,.791-.308,1.326,1.326,0,0,0-.009-1.74,1.157,1.157,0,0,0-1.6,0A1.16,1.16,0,0,0,127.128,15.084Zm4.908,1.833a.585.585,0,0,1-.18-.444.575.575,0,0,1,.176-.44.678.678,0,0,1,.9,0,.566.566,0,0,1,.18.435.585.585,0,0,1-.18.444.64.64,0,0,1-.452.167A.624.624,0,0,1,132.036,16.917Zm2.5-2.7v-.431a3.459,3.459,0,0,1,.589-2.118,1.941,1.941,0,0,1,1.648-.787,1.91,1.91,0,0,1,1.635.782,3.507,3.507,0,0,1,.576,2.123v.431a4.246,4.246,0,0,1-.247,1.507,2.2,2.2,0,0,1-.755,1.019,2.02,2.02,0,0,1-1.227.374,1.921,1.921,0,0,1-1.639-.782A3.486,3.486,0,0,1,134.54,14.218Zm1.064-.009a3.025,3.025,0,0,0,.307,1.507.955.955,0,0,0,1.705,0,2.977,2.977,0,0,0,.312-1.5v-.418a2.951,2.951,0,0,0-.312-1.5.953.953,0,0,0-1.705,0,2.988,2.988,0,0,0-.307,1.5Zm4.8.817v-.87h1.749V12.342h.879v1.815h1.758v.87h-1.758v1.89h-.879v-1.89Z" fill="#fff"/>
    <path id="Android_2" d="M49.191,38.5l5.233-15.33h3.088L62.735,38.5H59.826l-1.3-4.133h-5.29l-1.3,4.133Zm4.638-6.2h4.11l-2-6.379h-.1Zm10.563,6.2V26.618H67v1.673h.1a2.987,2.987,0,0,1,1.235-1.314,4.595,4.595,0,0,1,5.177.562,4.067,4.067,0,0,1,1.168,3.111V38.5H72.017V31.481q0-2.763-2.459-2.763a2.4,2.4,0,0,0-1.853.73,3.038,3.038,0,0,0-.663,2.111V38.5Zm12.55-5.278V31.874a6.1,6.1,0,0,1,1.19-3.953A4.074,4.074,0,0,1,81.49,26.45a4.265,4.265,0,0,1,2.212.528,2.636,2.636,0,0,1,1.2,1.348h.1V22.362h2.65V38.5H85.062V36.681h-.1a2.51,2.51,0,0,1-1.179,1.4,4.3,4.3,0,0,1-2.291.573,4.108,4.108,0,0,1-3.358-1.46A6.139,6.139,0,0,1,76.942,33.222Zm2.706-.27a4.413,4.413,0,0,0,.685,2.617,2.562,2.562,0,0,0,3.953.022,4.2,4.2,0,0,0,.719-2.617v-.887a4.033,4.033,0,0,0-.73-2.549,2.37,2.37,0,0,0-1.988-.932,2.255,2.255,0,0,0-1.965.954,4.425,4.425,0,0,0-.674,2.594ZM90.694,38.5V26.618h2.65v1.538h.1a2.714,2.714,0,0,1,2.819-1.718,4.707,4.707,0,0,1,.876.079v2.325a4.327,4.327,0,0,0-1.1-.09q-2.65,0-2.65,2.763V38.5ZM98.1,32.963v-.842a7.06,7.06,0,0,1,.573-2.931,4.58,4.58,0,0,1,1.808-2.021,5.557,5.557,0,0,1,2.965-.753,4.992,4.992,0,0,1,3.965,1.55,6.005,6.005,0,0,1,1.37,4.144v.854a6.138,6.138,0,0,1-1.359,4.211,5.953,5.953,0,0,1-7.963,0A6.113,6.113,0,0,1,98.1,32.963Zm2.661-.067a6.648,6.648,0,0,0,.135,1.393,4.346,4.346,0,0,0,.427,1.168,2.1,2.1,0,0,0,.831.831,2.594,2.594,0,0,0,1.291.3,2.648,2.648,0,0,0,1.28-.292,2.015,2.015,0,0,0,.82-.842,4.1,4.1,0,0,0,.416-1.168A6.648,6.648,0,0,0,106.1,32.9v-.685a6.707,6.707,0,0,0-.135-1.4,4.1,4.1,0,0,0-.416-1.168,2.013,2.013,0,0,0-.831-.831,2.508,2.508,0,0,0-1.269-.3,2.634,2.634,0,0,0-1.291.3,2.085,2.085,0,0,0-.831.842,4.168,4.168,0,0,0-.427,1.168,6.646,6.646,0,0,0-.135,1.392Zm10.72-8.2a1.331,1.331,0,0,1-.438-1.022,1.3,1.3,0,0,1,.438-1.011,1.825,1.825,0,0,1,2.291,0,1.283,1.283,0,0,1,.449,1.011,1.331,1.331,0,0,1-.438,1.022,1.683,1.683,0,0,1-1.168.393A1.658,1.658,0,0,1,111.482,24.7Zm-.169,13.8V26.618h2.651V38.5Zm5.206-5.278V31.874a6.1,6.1,0,0,1,1.19-3.953,4.075,4.075,0,0,1,3.358-1.471,4.267,4.267,0,0,1,2.213.528,2.634,2.634,0,0,1,1.2,1.348h.1V22.362h2.651V38.5h-2.594V36.681h-.1a2.5,2.5,0,0,1-1.179,1.4,4.3,4.3,0,0,1-2.291.573,4.109,4.109,0,0,1-3.358-1.46A6.142,6.142,0,0,1,116.519,33.222Zm2.706-.27a4.411,4.411,0,0,0,.686,2.617,2.562,2.562,0,0,0,3.953.022,4.2,4.2,0,0,0,.718-2.617v-.887a4.03,4.03,0,0,0-.73-2.549,2.369,2.369,0,0,0-1.987-.932,2.257,2.257,0,0,0-1.966.954,4.427,4.427,0,0,0-.674,2.594Z" fill="#fff"/>
  </g>
</svg>
