<svg xmlns="http://www.w3.org/2000/svg" width="122.63" height="107.073" viewBox="0 0 122.63 107.073">
  <path id="Icon_awesome-exchange-alt" data-name="Icon awesome-exchange-alt" d="M0,33.919V29.637c0-3.548,2.574-6.424,5.748-6.424H91.972V10.366c0-5.719,6.2-8.576,9.813-4.542l19.161,21.412a6.969,6.969,0,0,1,0,9.084L101.785,57.733c-3.6,4.018-9.813,1.2-9.813-4.542V40.343H5.748C2.574,40.343,0,37.467,0,33.919ZM116.881,74.6H30.657V61.755c0-5.7-6.194-8.586-9.813-4.542L1.684,78.625a6.969,6.969,0,0,0,0,9.084l19.161,21.412c3.6,4.022,9.813,1.2,9.813-4.542V91.733h86.224c3.175,0,5.748-2.876,5.748-6.424V81.027C122.63,77.479,120.056,74.6,116.881,74.6Z" transform="translate(0 -3.936)" fill="#2b6fb8"/>
</svg>
