<svg xmlns="http://www.w3.org/2000/svg" width="79.282" height="79.282" viewBox="0 0 79.282 79.282">
  <path id="Icon_awesome-facebook-square" data-name="Icon awesome-facebook-square" d="M70.788,2.25H8.495A8.495,8.495,0,0,0,0,10.745V73.038a8.495,8.495,0,0,0,8.495,8.495H32.784V54.578H21.634V41.891H32.784v-9.67c0-11,6.548-17.074,16.577-17.074A67.543,67.543,0,0,1,59.186,16V26.8H53.652c-5.452,0-7.153,3.384-7.153,6.854v8.238H58.671L56.724,54.578H46.5V81.532H70.788a8.495,8.495,0,0,0,8.495-8.495V10.745A8.495,8.495,0,0,0,70.788,2.25Z" transform="translate(0 -2.25)" fill="#859ab8"/>
</svg>
