<svg xmlns="http://www.w3.org/2000/svg" width="81.397" height="79.364" viewBox="0 0 81.397 79.364">
  <path id="Icon_awesome-github" data-name="Icon awesome-github" d="M27.225,64.466c0,.328-.377.591-.853.591-.542.049-.919-.213-.919-.591,0-.328.377-.591.853-.591C26.8,63.826,27.225,64.088,27.225,64.466Zm-5.1-.738c-.115.328.213.706.706.8a.77.77,0,0,0,1.017-.328c.1-.328-.213-.706-.706-.853A.842.842,0,0,0,22.122,63.727Zm7.254-.279c-.476.115-.8.427-.755.8.049.328.476.542.968.427.476-.115.8-.427.755-.755C30.294,63.613,29.851,63.4,29.375,63.448ZM40.173.563C17.412.563,0,17.843,0,40.6A41.143,41.143,0,0,0,27.816,79.859c2.1.377,2.839-.919,2.839-1.986,0-1.017-.049-6.63-.049-10.076,0,0-11.488,2.462-13.9-4.89,0,0-1.871-4.776-4.562-6.006,0,0-3.758-2.576.263-2.527a8.663,8.663,0,0,1,6.335,4.234c3.594,6.335,9.617,4.513,11.963,3.43a9.121,9.121,0,0,1,2.626-5.53C24.157,55.489,14.9,54.16,14.9,38.373c0-4.513,1.247-6.778,3.873-9.666A15.505,15.505,0,0,1,19.2,17.564c3.43-1.067,11.323,4.431,11.323,4.431a38.769,38.769,0,0,1,20.612,0s7.894-5.514,11.323-4.431a15.5,15.5,0,0,1,.427,11.143c2.626,2.9,4.234,5.169,4.234,9.666,0,15.836-9.666,17.1-18.84,18.134,1.51,1.3,2.79,3.758,2.79,7.615,0,5.53-.049,12.374-.049,13.719,0,1.067.755,2.363,2.839,1.986C70.271,74.378,81.4,58.8,81.4,40.6,81.4,17.843,62.935.563,40.173.563Zm-24.222,56.6c-.213.164-.164.542.115.853.263.263.64.377.853.164.213-.164.164-.542-.115-.853C16.542,57.065,16.165,56.95,15.951,57.163Zm-1.772-1.329c-.115.213.049.476.377.64a.488.488,0,0,0,.706-.115c.115-.213-.049-.476-.377-.64C14.556,55.62,14.294,55.67,14.179,55.834ZM19.5,61.676c-.263.213-.164.706.213,1.017.377.377.853.427,1.067.164.213-.213.115-.706-.213-1.017C20.2,61.463,19.709,61.413,19.5,61.676Zm-1.871-2.412c-.263.164-.263.591,0,.968s.706.542.919.377a.748.748,0,0,0,0-1.017C18.314,59.214,17.888,59.05,17.625,59.264Z" transform="translate(0 -0.563)" fill="#859ab8"/>
</svg>
