<svg xmlns="http://www.w3.org/2000/svg" width="84" height="84" viewBox="0 0 84 84">
  <g id="Icon_feather-instagram" data-name="Icon feather-instagram" transform="translate(-1.5 -1.5)">
    <path id="Tracé_74" data-name="Tracé 74" d="M23.25,3h40.5A20.25,20.25,0,0,1,84,23.25v40.5A20.25,20.25,0,0,1,63.75,84H23.25A20.25,20.25,0,0,1,3,63.75V23.25A20.25,20.25,0,0,1,23.25,3Z" transform="translate(0)" fill="none" stroke="#859ab8" stroke-linecap="round" stroke-linejoin="round" stroke-width="3"/>
    <path id="Tracé_75" data-name="Tracé 75" d="M24,17.055A6,6,0,1,1,18.945,12,6,6,0,0,1,24,17.055Z" transform="translate(25.684 25.316)" fill="none" stroke="#859ab8" stroke-linecap="round" stroke-linejoin="round" stroke-width="3"/>
    <path id="Tracé_76" data-name="Tracé 76" d="M26.25,9.75h0" transform="translate(39.525 11.475)" fill="none" stroke="#859ab8" stroke-linecap="round" stroke-linejoin="round" stroke-width="3"/>
  </g>
</svg>
