<svg xmlns="http://www.w3.org/2000/svg" width="380.768" height="97.451" viewBox="0 0 380.768 97.451">
  <g id="horizontal_white" transform="translate(-55.5 -76.5)">
    <path id="Tracé_77" data-name="Tracé 77" d="M183.016,115.347H172.654V109.24h28.217v6.107H190.509v26.275h-7.493Zm24.954,4.672a8.046,8.046,0,0,1,3.469-2.73,13.147,13.147,0,0,1,5.088-.925v6.662q-1.2-.093-1.619-.093a6.564,6.564,0,0,0-4.857,1.758,6.929,6.929,0,0,0-1.758,5.181v11.75h-7.216V116.734h6.893Zm35.326-3.285v24.888h-6.847v-2.961a9.827,9.827,0,0,1-3.423,2.5,11.029,11.029,0,0,1-4.3.833,10.6,10.6,0,0,1-7.771-2.822q-2.868-2.821-2.868-8.373V116.734H225.3v13q0,6.014,5.042,6.014a5.459,5.459,0,0,0,4.164-1.666,7.213,7.213,0,0,0,1.572-5.042V116.734Zm12.283,25.258a24.9,24.9,0,0,1-6.06-.74,16.247,16.247,0,0,1-4.719-1.943l2.406-5.181a15.641,15.641,0,0,0,4.024,1.757,17.421,17.421,0,0,0,4.626.648q4.579,0,4.58-2.267a1.6,1.6,0,0,0-1.249-1.526,18.539,18.539,0,0,0-3.84-.787,37.142,37.142,0,0,1-5.042-1.063,7.992,7.992,0,0,1-3.469-2.128,6.112,6.112,0,0,1-1.434-4.349,6.794,6.794,0,0,1,1.341-4.163,8.865,8.865,0,0,1,3.978-2.868,17.19,17.19,0,0,1,6.2-1.018,23.035,23.035,0,0,1,5.227.6,14.283,14.283,0,0,1,4.349,1.572l-2.406,5.135a14.363,14.363,0,0,0-7.17-1.85,7.3,7.3,0,0,0-3.469.647,1.905,1.905,0,0,0-1.157,1.666,1.654,1.654,0,0,0,1.249,1.619,22.2,22.2,0,0,0,3.978.879,39.077,39.077,0,0,1,5,1.11,7.323,7.323,0,0,1,3.377,2.082,5.97,5.97,0,0,1,1.434,4.255,6.571,6.571,0,0,1-1.387,4.117,9.006,9.006,0,0,1-4.071,2.822A18.215,18.215,0,0,1,255.579,141.992Zm29.478-1.573a7.721,7.721,0,0,1-2.637,1.2,13.739,13.739,0,0,1-3.238.37,9.775,9.775,0,0,1-6.892-2.267q-2.406-2.267-2.406-6.661V122.841h-3.839v-5.552h3.839V111.23H277.1v6.059h6.2v5.552h-6.2v10.13a3.55,3.55,0,0,0,.787,2.452,3.127,3.127,0,0,0,2.313.833,4.637,4.637,0,0,0,2.914-.926Zm61.051-31.179-10.593,32.382h-8.049l-7.124-21.927-7.355,21.927h-8L294.345,109.24h7.771L309.425,132l7.633-22.76H324l7.4,22.945,7.54-22.945Zm9.085,7.124q5.783,0,8.882,2.776,3.1,2.729,3.1,8.28v14.2H360.42v-3.1q-2.034,3.47-7.586,3.47a11.929,11.929,0,0,1-5-.972,7.431,7.431,0,0,1-3.192-2.683,6.984,6.984,0,0,1-1.11-3.886,6.506,6.506,0,0,1,2.591-5.458Q348.762,127,354.222,127h5.736a4.525,4.525,0,0,0-1.434-3.608,6.237,6.237,0,0,0-4.3-1.3,12.354,12.354,0,0,0-3.932.648,10.031,10.031,0,0,0-3.238,1.665l-2.591-5.042a15.653,15.653,0,0,1,4.857-2.22A22.091,22.091,0,0,1,355.193,116.364Zm-.555,20.77a6.422,6.422,0,0,0,3.285-.832,4.792,4.792,0,0,0,2.035-2.544v-2.545h-4.95q-4.44,0-4.441,2.915a2.677,2.677,0,0,0,1.064,2.22A5.116,5.116,0,0,0,354.638,137.134ZM370.93,107.3h7.216v34.324H370.93Zm11.138,0h7.217v34.324h-7.217Zm35.517,21.972q0,.14-.139,1.943H398.619a5.867,5.867,0,0,0,2.4,3.655,7.971,7.971,0,0,0,4.719,1.341,9.721,9.721,0,0,0,3.423-.555,8.59,8.59,0,0,0,2.821-1.85l3.84,4.163q-3.516,4.024-10.269,4.025a16.444,16.444,0,0,1-7.448-1.619,12.2,12.2,0,0,1-5-4.58,12.554,12.554,0,0,1-1.758-6.615,12.729,12.729,0,0,1,1.712-6.569,12.148,12.148,0,0,1,4.764-4.579,14.7,14.7,0,0,1,13.415-.093,11.293,11.293,0,0,1,4.626,4.533A13.182,13.182,0,0,1,417.585,129.27Zm-12.906-7.447a6.209,6.209,0,0,0-4.117,1.388A5.9,5.9,0,0,0,398.526,127h12.259a5.869,5.869,0,0,0-2.036-3.747A6.022,6.022,0,0,0,404.679,121.823Zm30.986,18.6a7.724,7.724,0,0,1-2.636,1.2,13.745,13.745,0,0,1-3.238.37,9.777,9.777,0,0,1-6.893-2.267q-2.406-2.267-2.4-6.661V122.841h-3.84v-5.552h3.84V111.23h7.216v6.059h6.2v5.552h-6.2v10.13a3.55,3.55,0,0,0,.786,2.452,3.127,3.127,0,0,0,2.313.833,4.639,4.639,0,0,0,2.915-.926Z" fill="#2b6fb8" stroke="#707070" stroke-width="1"/>
    <rect id="Rectangle_46" data-name="Rectangle 46" width="96.451" height="96.451" rx="32.549" transform="translate(56 77)" fill="#2b6fb8" stroke="#707070" stroke-width="1"/>
    <path id="Tracé_78" data-name="Tracé 78" d="M57,125.5A47.5,47.5,0,1,1,104.5,173,47.5,47.5,0,0,1,57,125.5Z" fill="#2b6fb8" stroke="#707070" stroke-width="1"/>
    <path id="Tracé_79" data-name="Tracé 79" d="M104.528,97.111c9.585,8.006,20.577,7.512,23.718,7.512-.687,45.528-5.922,36.5-23.718,49.266-17.8-12.766-23-3.738-23.685-49.266C83.951,104.623,94.943,105.117,104.528,97.111Z" fill="none" stroke="#fff" stroke-linecap="round" stroke-linejoin="round" stroke-miterlimit="10" stroke-width="6.063"/>
  </g>
</svg>
