<svg xmlns="http://www.w3.org/2000/svg" width="102.939" height="114.89" viewBox="0 0 102.939 114.89">
  <path id="Icon_material-lock" data-name="Icon material-lock" d="M96.072,39.8H89.638V28.855C89.638,13.755,75.227,1.5,57.47,1.5S25.3,13.755,25.3,28.855V39.8H18.867C11.79,39.8,6,44.72,6,50.738v54.709c0,6.018,5.79,10.942,12.867,10.942h77.2c7.077,0,12.867-4.924,12.867-10.942V50.738C108.939,44.72,103.149,39.8,96.072,39.8ZM57.47,89.035c-7.077,0-12.867-4.924-12.867-10.942s5.79-10.942,12.867-10.942,12.867,4.924,12.867,10.942S64.547,89.035,57.47,89.035ZM77.414,39.8H37.525V28.855c0-9.355,8.943-16.96,19.945-16.96s19.945,7.6,19.945,16.96Z" transform="translate(-6 -1.5)" fill="#2b6fb8"/>
</svg>
