<svg width="100" height="124" viewBox="0 0 112 134" fill="none" xmlns="http://www.w3.org/2000/svg">
                            <path d="M102.654 1L62.1096 31L69.6492 13.32L102.654 1Z" fill="#E17726" stroke="#E17726" stroke-width="0.77174" stroke-linecap="round" stroke-linejoin="round"></path>
                            <path d="M9.1333 1L49.3167 31.28L42.1383 13.32L9.1333 1Z" fill="#E27625" stroke="#E27625" stroke-width="0.77174" stroke-linecap="round" stroke-linejoin="round"></path>
                            <path d="M88.0555 70.5598L77.2678 87.0399L100.367 93.3999L106.984 70.9201L88.0555 70.5598Z" fill="#E27625" stroke="#E27625" stroke-width="0.77174" stroke-linecap="round" stroke-linejoin="round"></path>
                            <path d="M4.8418 70.9201L11.4187 93.3999L34.4781 87.0399L23.7304 70.5598L4.8418 70.9201Z" fill="#E27625" stroke="#E27625" stroke-width="0.77174" stroke-linecap="round" stroke-linejoin="round"></path>
                            <path d="M33.2348 42.7199L26.8184 52.3999L49.6771 53.4399L48.9153 28.84L33.2348 42.7199Z" fill="#E27625" stroke="#E27625" stroke-width="0.77174" stroke-linecap="round" stroke-linejoin="round"></path>
                            <path d="M78.551 42.7202L62.6303 28.5603L62.1089 53.4403L84.9675 52.4003L78.551 42.7202Z" fill="#E27625" stroke="#E27625" stroke-width="0.77174" stroke-linecap="round" stroke-linejoin="round"></path>
                            <path d="M34.4785 87.0397L48.314 80.3598L36.4035 71.0798L34.4785 87.0397Z" fill="#E27625" stroke="#E27625" stroke-width="0.77174" stroke-linecap="round" stroke-linejoin="round"></path>
                            <path d="M63.4729 80.3598L77.2682 87.0397L75.3833 71.0798L63.4729 80.3598Z" fill="#E27625" stroke="#E27625" stroke-width="0.77174" stroke-linecap="round" stroke-linejoin="round"></path>
                            <path d="M77.2682 87.0402L63.4729 80.3604L64.5956 89.3202L64.4752 93.1203L77.2682 87.0402Z" fill="#D5BFB2" stroke="#D5BFB2" stroke-width="0.77174" stroke-linecap="round" stroke-linejoin="round"></path>
                            <path d="M34.4785 87.0402L47.3116 93.1203L47.2314 89.3202L48.314 80.3604L34.4785 87.0402Z" fill="#D5BFB2" stroke="#D5BFB2" stroke-width="0.77174" stroke-linecap="round" stroke-linejoin="round"></path>
                            <path d="M47.5519 65.16L36.0823 61.8002L44.1831 58.0801L47.5519 65.16Z" fill="#233447" stroke="#233447" stroke-width="0.77174" stroke-linecap="round" stroke-linejoin="round"></path>
                            <path d="M64.2349 65.16L67.6037 58.0801L75.7446 61.8002L64.2349 65.16Z" fill="#233447" stroke="#233447" stroke-width="0.77174" stroke-linecap="round" stroke-linejoin="round"></path>
                            <path d="M34.4783 87.0399L36.4836 70.5598L23.7307 70.9201L34.4783 87.0399Z" fill="#CC6228" stroke="#CC6228" stroke-width="0.77174" stroke-linecap="round" stroke-linejoin="round"></path>
                            <path d="M75.303 70.5598L77.2681 87.0399L88.0558 70.9201L75.303 70.5598Z" fill="#CC6228" stroke="#CC6228" stroke-width="0.77174" stroke-linecap="round" stroke-linejoin="round"></path>
                            <path d="M84.9675 52.3998L62.1089 53.4398L64.2343 65.16L67.6031 58.0798L75.744 61.7999L84.9675 52.3998Z" fill="#CC6228" stroke="#CC6228" stroke-width="0.77174" stroke-linecap="round" stroke-linejoin="round"></path>
                            <path d="M36.0822 61.7999L44.183 58.0798L47.5518 65.16L49.6771 53.4398L26.8184 52.3998L36.0822 61.7999Z" fill="#CC6228" stroke="#CC6228" stroke-width="0.77174" stroke-linecap="round" stroke-linejoin="round"></path>
                            <path d="M26.8191 52.3998L36.4038 71.0799L36.0828 61.7999L26.8191 52.3998Z" fill="#E27525" stroke="#E27525" stroke-width="0.77174" stroke-linecap="round" stroke-linejoin="round"></path>
                            <path d="M75.7447 61.7999L75.3838 71.0799L84.9685 52.3998L75.7447 61.7999Z" fill="#E27525" stroke="#E27525" stroke-width="0.77174" stroke-linecap="round" stroke-linejoin="round"></path>
                            <path d="M49.6787 53.4398L47.553 65.1601L50.2399 78.9998L50.8415 60.7599L49.6787 53.4398Z" fill="#E27525" stroke="#E27525" stroke-width="0.77174" stroke-linecap="round" stroke-linejoin="round"></path>
                            <path d="M62.1096 53.4398L60.9866 60.7201L61.5481 78.9998L64.235 65.1601L62.1096 53.4398Z" fill="#E27525" stroke="#E27525" stroke-width="0.77174" stroke-linecap="round" stroke-linejoin="round"></path>
                            <path d="M64.235 65.1602L61.5481 79L63.4731 80.3601L75.3838 71.0801L75.7447 61.8L64.235 65.1602Z" fill="#F5841F" stroke="#F5841F" stroke-width="0.77174" stroke-linecap="round" stroke-linejoin="round"></path>
                            <path d="M36.0823 61.8L36.4033 71.0801L48.3137 80.3601L50.2388 79L47.5519 65.1602L36.0823 61.8Z" fill="#F5841F" stroke="#F5841F" stroke-width="0.77174" stroke-linecap="round" stroke-linejoin="round"></path>
                            <path d="M64.4757 93.12L64.5958 89.3199L63.5533 88.4398H48.234L47.2314 89.3199L47.3116 93.12L34.4785 87.0399L38.97 90.7199L48.0735 97H63.6734L72.817 90.7199L77.2684 87.0399L64.4757 93.12Z" fill="#C0AC9D" stroke="#C0AC9D" stroke-width="0.77174" stroke-linecap="round" stroke-linejoin="round"></path>
                            <path d="M63.4727 80.3597L61.5477 78.9999H50.2386L48.3139 80.3597L47.231 89.3199L48.2336 88.4398H63.5529L64.5957 89.3199L63.4727 80.3597Z" fill="#161616" stroke="#161616" stroke-width="0.77174" stroke-linecap="round" stroke-linejoin="round"></path>
                            <path d="M104.378 32.9599L107.787 16.4L102.653 1L63.4729 30.0001L78.5515 42.7199L99.8462 48.9201L104.538 43.4401L102.493 41.9599L105.741 39.0002L103.255 37.0801L106.504 34.6L104.378 32.9599Z" fill="#763E1A" stroke="#763E1A" stroke-width="0.77174" stroke-linecap="round" stroke-linejoin="round"></path>
                            <path d="M4 16.4L7.44887 32.9599L5.24321 34.6L8.53166 37.0801L6.04526 39.0002L9.29361 41.9599L7.24834 43.4401L11.9404 48.9201L33.2354 42.7199L48.3139 30.0001L9.13321 1L4 16.4Z" fill="#763E1A" stroke="#763E1A" stroke-width="0.77174" stroke-linecap="round" stroke-linejoin="round"></path>
                            <path d="M99.8467 48.9198L78.5519 42.72L84.9685 52.4001L75.3838 71.0799L88.0564 70.92H106.985L99.8467 48.9198Z" fill="#F5841F" stroke="#F5841F" stroke-width="0.77174" stroke-linecap="round" stroke-linejoin="round"></path>
                            <path d="M33.2347 42.72L11.94 48.9198L4.8418 70.92H23.7304L36.4028 71.0799L26.8183 52.4001L33.2347 42.72Z" fill="#F5841F" stroke="#F5841F" stroke-width="0.77174" stroke-linecap="round" stroke-linejoin="round"></path>
                            <path d="M62.1091 53.44L63.4726 29.9998L69.6484 13.3199H42.1377L48.3135 29.9998L49.677 53.44L50.1984 60.7999L50.2385 79H61.5476L61.5877 60.7999L62.1091 53.44Z" fill="#F5841F" stroke="#F5841F" stroke-width="0.77174" stroke-linecap="round" stroke-linejoin="round"></path>
                            <path d="M93.9739 126.155C93.171 125.625 92.2865 125.249 91.4491 124.778C90.906 124.472 90.3275 124.201 89.8562 123.813C89.0533 123.154 89.2186 121.86 90.0569 121.295C91.2602 120.495 93.2537 120.942 93.4662 122.577C93.4662 122.613 93.5016 122.636 93.537 122.636H95.3543C95.4015 122.636 95.4369 122.601 95.4251 122.554C95.3307 121.424 94.8939 120.483 94.0919 119.883C93.3245 119.306 92.4517 119 91.519 119C86.7175 119 86.2807 124.072 88.8644 125.672C89.1596 125.861 91.6961 127.132 92.5934 127.685C93.4898 128.238 93.7732 129.25 93.3835 130.05C93.0294 130.78 92.1094 131.286 91.1894 131.227C90.1858 131.168 89.4075 130.627 89.136 129.779C89.0887 129.627 89.0651 129.332 89.0651 129.203C89.0651 129.168 89.0297 129.132 88.9943 129.132H87.0245C86.989 129.132 86.9536 129.168 86.9536 129.203C86.9536 130.627 87.3078 131.415 88.275 132.133C89.1832 132.816 90.174 133.098 91.2012 133.098C93.8912 133.098 95.2835 131.58 95.5659 130.003C95.8138 128.461 95.3543 127.073 93.9739 126.155Z" fill="#161616"></path>
                            <path d="M8.42403 119.259H7.55099H6.59531C6.55989 119.259 6.53628 119.283 6.52447 119.306L4.90818 124.625C4.88457 124.696 4.79021 124.696 4.7666 124.625L3.15021 119.306C3.13841 119.271 3.11479 119.259 3.07938 119.259H2.12379H1.25066H0.0708374C0.0354183 119.259 0 119.294 0 119.33V132.91C0 132.945 0.0354183 132.981 0.0708374 132.981H2.04114C2.07656 132.981 2.11198 132.945 2.11198 132.91V122.589C2.11198 122.507 2.22995 122.495 2.25356 122.566L3.88166 127.92L3.99963 128.297C4.01144 128.332 4.03505 128.344 4.07047 128.344H5.58069C5.61602 128.344 5.63963 128.32 5.65144 128.297L5.76941 127.92L7.3976 122.566C7.42121 122.483 7.53919 122.507 7.53919 122.589V132.91C7.53919 132.945 7.5746 132.981 7.60993 132.981H9.58033C9.61565 132.981 9.65107 132.945 9.65107 132.91V119.33C9.65107 119.294 9.61565 119.259 9.58033 119.259H8.42403Z" fill="#161616"></path>
                            <path d="M63.8051 119.259C63.7697 119.259 63.7461 119.283 63.7343 119.306L62.1186 124.625C62.095 124.696 62.0005 124.696 61.9769 124.625L60.3604 119.306C60.3486 119.271 60.3249 119.259 60.2895 119.259H57.2925C57.2571 119.259 57.2217 119.294 57.2217 119.33V132.91C57.2217 132.945 57.2571 132.981 57.2925 132.981H59.2633C59.2987 132.981 59.3341 132.945 59.3341 132.91V122.589C59.3341 122.507 59.4522 122.495 59.4758 122.566L61.1032 127.92L61.2213 128.297C61.2331 128.332 61.2567 128.344 61.2921 128.344H62.8025C62.8379 128.344 62.8615 128.32 62.8733 128.297L62.9914 127.92L64.6197 122.566C64.6433 122.483 64.7614 122.507 64.7614 122.589V132.91C64.7614 132.945 64.7968 132.981 64.8322 132.981H66.8021C66.8375 132.981 66.8729 132.945 66.8729 132.91V119.33C66.8729 119.294 66.8375 119.259 66.8021 119.259H63.8051Z" fill="#161616"></path>
                            <path d="M38.3917 119.259H34.7223H32.752H29.0828C29.0474 119.259 29.012 119.294 29.012 119.33V121.024C29.012 121.06 29.0474 121.095 29.0828 121.095H32.6813V132.91C32.6813 132.945 32.7166 132.981 32.752 132.981H34.7223C34.7578 132.981 34.7932 132.945 34.7932 132.91V121.095H38.3917C38.4271 121.095 38.4624 121.06 38.4624 121.024V119.33C38.4624 119.294 38.4389 119.259 38.3917 119.259Z" fill="#161616"></path>
                            <path d="M50.0133 132.98H51.8061C51.8533 132.98 51.8887 132.933 51.8769 132.886L48.1725 119.259C48.1607 119.224 48.137 119.212 48.1016 119.212H47.4175H46.2141H45.5297C45.4943 119.212 45.4707 119.235 45.4589 119.259L41.7542 132.886C41.7424 132.933 41.7779 132.98 41.8251 132.98H43.6184C43.6538 132.98 43.6774 132.957 43.6892 132.933L44.7629 128.967C44.7746 128.932 44.7982 128.92 44.8336 128.92H48.7982C48.8336 128.92 48.8572 128.944 48.869 128.967L49.9425 132.933C49.9543 132.957 49.9897 132.98 50.0133 132.98ZM45.3055 126.979L46.745 121.671C46.7685 121.601 46.8629 121.601 46.8866 121.671L48.3259 126.979C48.3377 127.026 48.3023 127.073 48.2551 127.073H45.3763C45.3291 127.073 45.2938 127.026 45.3055 126.979Z" fill="#161616"></path>
                            <path d="M80.5946 132.98H82.3873C82.4345 132.98 82.47 132.933 82.4581 132.886L78.7537 119.259C78.7419 119.224 78.7183 119.212 78.6828 119.212H77.999H76.7956H76.1109C76.0754 119.212 76.0518 119.235 76.04 119.259L72.3355 132.886C72.3237 132.933 72.3592 132.98 72.4064 132.98H74.2C74.2355 132.98 74.2591 132.957 74.2709 132.933L75.3443 128.967C75.3562 128.932 75.3798 128.92 75.4152 128.92H79.3794C79.4148 128.92 79.4384 128.944 79.4502 128.967L80.5237 132.933C80.5355 132.957 80.5591 132.98 80.5946 132.98ZM75.8865 126.979L77.326 121.671C77.3496 121.601 77.4441 121.601 77.4677 121.671L78.9071 126.979C78.919 127.026 78.8835 127.073 78.8363 127.073H75.9574C75.9101 127.073 75.8747 127.026 75.8865 126.979Z" fill="#161616"></path>
                            <path d="M17.6502 130.968V126.755C17.6502 126.72 17.6856 126.685 17.7211 126.685H22.9713C23.0067 126.685 23.0421 126.649 23.0421 126.614V124.919C23.0421 124.884 23.0067 124.849 22.9713 124.849H17.7211C17.6856 124.849 17.6502 124.813 17.6502 124.778V121.177C17.6502 121.142 17.6856 121.107 17.7211 121.107H23.691C23.7264 121.107 23.7618 121.071 23.7618 121.036V119.341C23.7618 119.306 23.7264 119.271 23.691 119.271H17.6502H15.6092C15.5737 119.271 15.5383 119.306 15.5383 119.341V121.107V124.861V126.696V131.051V132.91C15.5383 132.945 15.5737 132.98 15.6092 132.98H17.6502H23.9387C23.9742 132.98 24.0096 132.945 24.0096 132.91V131.121C24.0096 131.086 23.9742 131.051 23.9387 131.051H17.7092C17.6738 131.039 17.6502 131.015 17.6502 130.968Z" fill="#161616"></path>
                            <path d="M111.978 132.863L105.158 125.837C105.135 125.814 105.135 125.767 105.158 125.743L111.294 119.388C111.341 119.341 111.306 119.271 111.247 119.271H108.734C108.71 119.271 108.698 119.283 108.686 119.294L103.483 124.684C103.436 124.731 103.365 124.696 103.365 124.637V119.341C103.365 119.306 103.33 119.271 103.295 119.271H101.324C101.288 119.271 101.253 119.306 101.253 119.341V132.922C101.253 132.957 101.288 132.992 101.324 132.992H103.295C103.33 132.992 103.365 132.957 103.365 132.922V126.944C103.365 126.885 103.448 126.849 103.483 126.896L109.382 132.969C109.394 132.98 109.417 132.992 109.429 132.992H111.942C111.989 132.98 112.025 132.898 111.978 132.863Z" fill="#161616"></path>
                            </svg>
