<svg xmlns="http://www.w3.org/2000/svg" viewBox="0 0 39 32" fill="none" id="social_reddit">
    <path fill-rule="evenodd" clip-rule="evenodd" d="M24.912 21.06c-1.435 0-2.641-1.153-2.641-2.575 0-1.422 1.206-2.613 2.641-2.613s2.6 1.191 2.6 2.613-1.165 2.576-2.6 2.576zm.61 5c-1.337 1.323-3.399 1.966-6.303 1.966l-.02-.001-.02.001c-2.905 0-4.965-.643-6.3-1.966a1.031 1.031 0 0 1 0-1.47 1.056 1.056 0 0 1 1.483 0c.921.913 2.497 1.358 4.816 1.358h.041c2.32 0 3.897-.445 4.82-1.358a1.055 1.055 0 0 1 1.483 0 1.034 1.034 0 0 1 0 1.47zm-14.633-7.575c0-1.42 1.203-2.613 2.637-2.613 1.436 0 2.6 1.192 2.6 2.613 0 1.422-1.164 2.576-2.6 2.576-1.434 0-2.637-1.154-2.637-2.576zM31.997 2.078c.972 0 1.763.784 1.763 1.746 0 .963-.791 1.747-1.763 1.747a1.757 1.757 0 0 1-1.763-1.747c0-.962.79-1.746 1.763-1.746zM38.4 15.656c0-2.522-2.07-4.573-4.615-4.573a4.616 4.616 0 0 0-2.908 1.026c-2.814-1.752-6.385-2.808-10.213-3.032l1.997-6.255 5.487 1.28c.144 1.98 1.815 3.547 3.849 3.547 2.127 0 3.859-1.716 3.859-3.825 0-2.108-1.732-3.824-3.86-3.824a3.87 3.87 0 0 0-3.425 2.065L22.194.578a1.049 1.049 0 0 0-1.24.698L18.475 9.04c-4.124.1-8.001 1.16-11.022 3.015a4.618 4.618 0 0 0-2.838-.972C2.07 11.083 0 13.134 0 15.656c0 1.56.792 2.937 1.998 3.763-.05.362-.077.727-.077 1.097 0 3.152 1.85 6.085 5.207 8.256C10.346 30.854 14.606 32 19.122 32s8.776-1.146 11.994-3.228c3.358-2.171 5.207-5.104 5.207-8.256 0-.336-.023-.67-.065-1.002a4.562 4.562 0 0 0 2.142-3.858z" fill="#859AB8"></path>
  </svg>
