<svg width="115" height="128" viewBox="0 0 125 138" fill="none" xmlns="http://www.w3.org/2000/svg">
                          <rect x="24" y="28" width="77.8132" height="69.6051" rx="34.8025" fill="#3375BB"></rect>
                          <path d="M19.5747 129.484H16V127.6H25.7346V129.484H22.1599V137.592H19.5747V129.484ZM28.6621 130.926C28.9599 130.554 29.3588 130.274 29.8589 130.083C30.3696 129.893 30.9547 129.798 31.6143 129.798V131.853C31.3377 131.834 31.1516 131.825 31.0558 131.825C30.343 131.825 29.7844 132.006 29.3802 132.367C28.9759 132.72 28.7738 133.252 28.7738 133.966V137.592H26.2843V129.912H28.6621V130.926ZM41.3276 129.912V137.592H38.9657V136.678C38.6359 137.011 38.2423 137.268 37.7848 137.449C37.3273 137.621 36.8326 137.706 36.3007 137.706C35.173 137.706 34.2793 137.416 33.6197 136.835C32.96 136.255 32.6303 135.394 32.6303 134.252V129.912H35.1198V133.923C35.1198 135.161 35.6996 135.779 36.8592 135.779C37.455 135.779 37.9337 135.608 38.2955 135.265C38.6572 134.913 38.8381 134.394 38.8381 133.709V129.912H41.3276ZM46.0436 137.706C45.3308 137.706 44.634 137.63 43.953 137.478C43.2722 137.316 42.7296 137.116 42.3253 136.878L43.1551 135.279C43.5381 135.498 44.0009 135.679 44.5435 135.822C45.0861 135.955 45.6181 136.022 46.1393 136.022C47.1926 136.022 47.7192 135.789 47.7192 135.322C47.7192 135.103 47.5756 134.946 47.2883 134.851C47.0011 134.756 46.5596 134.675 45.9638 134.609C45.2616 134.513 44.6818 134.404 44.2243 134.28C43.7669 134.156 43.368 133.938 43.0275 133.624C42.6977 133.31 42.5328 132.862 42.5328 132.282C42.5328 131.796 42.687 131.368 42.9955 130.997C43.3147 130.616 43.7722 130.321 44.368 130.112C44.9744 129.903 45.6872 129.798 46.5064 129.798C47.1128 129.798 47.7139 129.86 48.3096 129.983C48.9161 130.098 49.4161 130.259 49.8097 130.469L48.9799 132.053C48.2246 131.673 47.4 131.482 46.5064 131.482C45.9745 131.482 45.5755 131.549 45.3095 131.682C45.0436 131.815 44.9105 131.987 44.9105 132.196C44.9105 132.434 45.0542 132.601 45.3414 132.696C45.6287 132.791 46.0862 132.881 46.7138 132.967C47.416 133.072 47.9905 133.186 48.4373 133.31C48.8841 133.424 49.2725 133.638 49.6023 133.952C49.9321 134.266 50.097 134.704 50.097 135.265C50.097 135.741 49.9374 136.165 49.6182 136.536C49.2991 136.907 48.831 137.197 48.2139 137.406C47.6075 137.606 46.8841 137.706 46.0436 137.706ZM56.6918 137.221C56.4471 137.383 56.1439 137.506 55.7822 137.592C55.4311 137.668 55.0587 137.706 54.6651 137.706C53.6438 137.706 52.8511 137.473 52.2873 137.007C51.734 136.54 51.4575 135.855 51.4575 134.951V131.796H50.1329V130.083H51.4575V128.213H53.947V130.083H56.0854V131.796H53.947V134.923C53.947 135.246 54.0374 135.498 54.2182 135.679C54.4097 135.85 54.6757 135.936 55.0162 135.936C55.4098 135.936 55.745 135.841 56.0215 135.651L56.6918 137.221ZM78.7102 127.6L75.0557 137.592H72.279L69.8214 130.826L67.2841 137.592H64.5233L60.8529 127.6H63.5339L66.0553 134.623L68.6884 127.6H71.0821L73.6355 134.68L76.2367 127.6H78.7102ZM82.3235 129.798C83.6531 129.798 84.6744 130.083 85.3875 130.654C86.1005 131.216 86.4567 132.068 86.4567 133.21V137.592H84.1268V136.636C83.6589 137.349 82.7863 137.706 81.5096 137.706C80.8503 137.706 80.2758 137.606 79.7861 137.406C79.3074 137.207 78.9403 136.931 78.685 136.578C78.4297 136.226 78.302 135.827 78.302 135.379C78.302 134.666 78.6002 134.104 79.1957 133.695C79.8021 133.286 80.7327 133.081 81.9883 133.081H83.9672C83.9672 132.596 83.8026 132.225 83.4725 131.968C83.1424 131.701 82.6477 131.568 81.9883 131.568C81.5306 131.568 81.0787 131.635 80.6319 131.768C80.196 131.892 79.8231 132.063 79.5148 132.282L78.6212 130.726C79.089 130.431 79.6475 130.202 80.2968 130.041C80.9561 129.879 81.6322 129.798 82.3235 129.798ZM82.132 136.207C82.5578 136.207 82.9349 136.122 83.265 135.95C83.5951 135.77 83.8286 135.508 83.9672 135.165V134.38H82.2596C81.2383 134.38 80.7277 134.68 80.7277 135.279C80.7277 135.565 80.8503 135.793 81.0947 135.965C81.35 136.126 81.6961 136.207 82.132 136.207ZM88.2314 127H90.7209V137.592H88.2314V127ZM92.5519 127H95.0414V137.592H92.5519V127ZM105.283 133.781C105.283 133.809 105.267 134.009 105.235 134.38H98.7404C98.8579 134.856 99.1343 135.232 99.5702 135.508C100.007 135.784 100.55 135.922 101.198 135.922C101.645 135.922 102.039 135.865 102.379 135.751C102.73 135.627 103.055 135.436 103.352 135.18L104.677 136.464C103.869 137.292 102.688 137.706 101.134 137.706C100.167 137.706 99.3098 137.54 98.5648 137.207C97.8207 136.864 97.2462 136.393 96.8413 135.793C96.4373 135.194 96.2349 134.513 96.2349 133.752C96.2349 133 96.4323 132.325 96.8254 131.725C97.2302 131.116 97.7778 130.645 98.4691 130.312C99.1712 129.969 99.9532 129.798 100.815 129.798C101.656 129.798 102.417 129.96 103.097 130.283C103.778 130.607 104.31 131.073 104.693 131.682C105.087 132.282 105.283 132.981 105.283 133.781ZM100.831 131.482C100.267 131.482 99.7936 131.625 99.4106 131.911C99.0276 132.196 98.7941 132.586 98.7084 133.081H102.937C102.853 132.596 102.618 132.21 102.235 131.925C101.852 131.63 101.384 131.482 100.831 131.482ZM112 137.221C111.755 137.383 111.452 137.506 111.09 137.592C110.739 137.668 110.366 137.706 109.973 137.706C108.952 137.706 108.159 137.473 107.596 137.007C107.042 136.54 106.766 135.855 106.766 134.951V131.796H105.441V130.083H106.766V128.213H109.255V130.083H111.394V131.796H109.255V134.923C109.255 135.246 109.345 135.498 109.526 135.679C109.718 135.85 109.983 135.936 110.324 135.936C110.717 135.936 111.053 135.841 111.33 135.651L112 137.221Z" fill="#3375BB"></path>
                          <g filter="url(#filter0_dd_53_12)">
                          <path fill-rule="evenodd" clip-rule="evenodd" d="M16.3712 29.7212C13 36.275 13 44.85 13 62C13 79.15 13 87.725 16.3712 94.2789C19.3412 100.036 24.075 104.722 29.8925 107.662C36.5125 111 45.175 111 62.5 111C79.825 111 88.4875 111 95.1075 107.662C100.925 104.722 105.659 100.036 108.629 94.2789C112 87.725 112 79.15 112 62C112 44.85 112 36.275 108.629 29.7212C105.659 23.9637 100.925 19.2781 95.1075 16.3381C88.4875 13 79.825 13 62.5 13C45.175 13 36.5125 13 29.8925 16.3381C24.075 19.2781 19.3412 23.9637 16.3712 29.7212ZM87.2031 39.4293C88.0706 39.4293 88.8887 39.7816 89.4931 40.3789C90.0975 40.9914 90.4362 41.8182 90.4206 42.6602C90.2669 51.7866 89.91 58.7691 89.2457 64.2968C88.5969 69.8248 87.6225 73.9284 86.1532 77.2514C85.1632 79.4716 83.9387 81.3091 82.5006 82.8709C80.5675 84.9382 78.3556 86.4389 75.9432 87.863C74.9115 88.4737 73.8381 89.0766 72.7126 89.7092C70.3132 91.0588 67.6715 92.5427 64.6806 94.5239C63.5994 95.2434 62.19 95.2434 61.1088 94.5239C58.0711 92.5195 55.3955 91.0173 52.9726 89.6569C52.4359 89.3544 51.9096 89.0588 51.3938 88.7664C48.5618 87.1432 46.0113 85.5966 43.7838 83.3609C42.2988 81.8909 41.0144 80.0993 39.9931 77.9709C38.6019 75.1227 37.6562 71.6775 36.9606 67.2216C36.0331 61.265 35.5694 53.4709 35.4001 42.6602C35.3844 41.8182 35.7075 40.9914 36.3119 40.3789C36.9137 39.7816 37.75 39.4293 38.6175 39.4293H39.9462C44.0469 39.4448 53.095 39.0466 60.9212 33.0135C62.0832 32.1253 63.7062 32.1253 64.8682 33.0135C72.6944 39.0466 81.7425 39.4448 85.8588 39.4293H87.2031ZM80.01 75.2148C81.0156 73.1627 81.8519 70.33 82.485 66.2568C83.2431 61.3875 83.7068 54.7725 83.9257 45.7689C79.0981 45.6309 70.8082 44.7123 62.9012 39.4448C54.9969 44.6968 46.7069 45.6157 41.895 45.7689C42.0669 53.2107 42.4056 58.9989 42.9475 63.5466C43.5675 68.7223 44.4481 72.2289 45.5475 74.6941C46.2744 76.3325 47.0769 77.5116 48.0382 78.5527C49.32 79.9464 50.9457 81.0948 53.1575 82.4116C54.0746 82.9565 55.0854 83.5234 56.1874 84.1405C58.1492 85.2397 60.395 86.4982 62.9012 88.0773C65.3632 86.524 67.5776 85.2784 69.516 84.1872C70.0995 83.8584 70.6597 83.5435 71.1938 83.2384C73.9163 81.6918 75.9275 80.4057 77.4281 78.905C78.4338 77.8791 79.2518 76.7614 80.01 75.2148Z" fill="white"></path>
                          </g>
                          <defs>
                          <filter id="filter0_dd_53_12" x="0.95162" y="0.95162" width="123.097" height="122.097" filterUnits="userSpaceOnUse" color-interpolation-filters="sRGB">
                          <feFlood flood-opacity="0" result="BackgroundImageFix"></feFlood>
                          <feColorMatrix in="SourceAlpha" type="matrix" values="0 0 0 0 0 0 0 0 0 0 0 0 0 0 0 0 0 0 127 0" result="hardAlpha"></feColorMatrix>
                          <feOffset dx="2.40968" dy="2.40968"></feOffset>
                          <feGaussianBlur stdDeviation="4.81935"></feGaussianBlur>
                          <feComposite in2="hardAlpha" operator="out"></feComposite>
                          <feColorMatrix type="matrix" values="0 0 0 0 0.2 0 0 0 0 0.458824 0 0 0 0 0.733333 0 0 0 0.25 0"></feColorMatrix>
                          <feBlend mode="normal" in2="BackgroundImageFix" result="effect1_dropShadow_53_12"></feBlend>
                          <feColorMatrix in="SourceAlpha" type="matrix" values="0 0 0 0 0 0 0 0 0 0 0 0 0 0 0 0 0 0 127 0" result="hardAlpha"></feColorMatrix>
                          <feOffset dx="-2.40968" dy="-2.40968"></feOffset>
                          <feGaussianBlur stdDeviation="4.81935"></feGaussianBlur>
                          <feComposite in2="hardAlpha" operator="out"></feComposite>
                          <feColorMatrix type="matrix" values="0 0 0 0 0.2 0 0 0 0 0.458824 0 0 0 0 0.733333 0 0 0 0.25 0"></feColorMatrix>
                          <feBlend mode="normal" in2="effect1_dropShadow_53_12" result="effect2_dropShadow_53_12"></feBlend>
                          <feBlend mode="normal" in="SourceGraphic" in2="effect2_dropShadow_53_12" result="shape"></feBlend>
                          </filter>
                          </defs>
        </svg>
