<svg xmlns="http://www.w3.org/2000/svg" width="79.495" height="64.565" viewBox="0 0 79.495 64.565">
  <path id="Icon_awesome-twitter" data-name="Icon awesome-twitter" d="M71.324,19.471c.05.706.05,1.412.05,2.119,0,21.538-16.393,46.355-46.355,46.355A46.041,46.041,0,0,1,0,60.631a33.7,33.7,0,0,0,3.934.2,32.629,32.629,0,0,0,20.227-6.961,16.321,16.321,0,0,1-15.233-11.3,20.546,20.546,0,0,0,3.077.252,17.232,17.232,0,0,0,4.287-.555A16.3,16.3,0,0,1,3.228,26.281v-.2a16.408,16.408,0,0,0,7.364,2.068A16.317,16.317,0,0,1,5.548,6.357,46.311,46.311,0,0,0,39.142,23.406a18.392,18.392,0,0,1-.4-3.733,16.308,16.308,0,0,1,28.2-11.147,32.077,32.077,0,0,0,10.34-3.934,16.248,16.248,0,0,1-7.163,8.978,32.662,32.662,0,0,0,9.382-2.522A35.022,35.022,0,0,1,71.324,19.471Z" transform="translate(0 -3.381)" fill="#859ab8"/>
</svg>
